<svg xmlns="http://www.w3.org/2000/svg" viewBox="0 0 200 250">
  <defs>
    <linearGradient id="sepiaPaper" x1="0" y1="0" x2="0" y2="1">
      <stop offset="0%" stop-color="#f5e6ca"/>
      <stop offset="100%" stop-color="#e0cda9"/>
    </linearGradient>
    <linearGradient id="sepiaFold" x1="0" y1="0" x2="1" y2="1">
      <stop offset="0%" stop-color="#d6b98c"/>
      <stop offset="100%" stop-color="#c4a574"/>
    </linearGradient>
  </defs>
  <rect x="20" y="20" width="160" height="210" rx="8" ry="8" fill="url(#sepiaPaper)" stroke="#b89b72" stroke-width="2"/>
  <polygon points="140,20 180,20 180,60" fill="url(#sepiaFold)"/>
  <g stroke="#c2a97f" stroke-width="1" font-family="Georgia, serif" font-size="8" fill="#999" text-anchor="middle">
    <line x1="30" y1="60" x2="170" y2="60"/><text x="100" y="58">Sistema de gestión de expedientes</text>
    <line x1="30" y1="80" x2="170" y2="80"/><text x="100" y="78">Sistema de gestión de expedientes</text>
    <line x1="30" y1="100" x2="170" y2="100"/><text x="100" y="98">Sistema de gestión de expedientes</text>
    <line x1="30" y1="120" x2="170" y2="120"/><text x="100" y="118">Sistema de gestión de expedientes</text>
    <line x1="30" y1="140" x2="170" y2="140"/><text x="100" y="138">Sistema de gestión de expedientes</text>
    <line x1="30" y1="160" x2="170" y2="160"/><text x="100" y="158">Sistema de gestión de expedientes</text>
    <line x1="30" y1="180" x2="170" y2="180"/><text x="100" y="178">Sistema de gestión de expedientes</text>
    <line x1="30" y1="200" x2="170" y2="200"/><text x="100" y="198">Sistema de gestión de expedientes</text>
  </g>
  <g transform="rotate(-12, 100, 140)" opacity="0.85" font-family="Impact, Arial Black, sans-serif" font-size="26" font-weight="bold" fill="#b22222" letter-spacing="2" text-anchor="middle">
    <rect x="50" y="120" width="100" height="40" fill="none" stroke="#b22222" stroke-width="4"/>
    <text x="100" y="147">GSXPD</text>
  </g>
</svg>
